<svg width="23" height="23" viewBox="0 0 23 23" fill="none" xmlns="http://www.w3.org/2000/svg">
<path d="M20.3294 16.9538V6.04861C21.8279 5.86559 22.9948 4.58707 22.9948 3.03673C22.9948 1.36271 21.6325 0 19.9584 0C18.4106 0 17.1323 1.16466 16.9469 2.66568H6.0428C5.8624 1.16722 4.5842 0.00256118 3.03624 0.00256118C1.36239 0.00256118 0 1.36505 0 3.03912C0 4.58707 1.16454 5.86557 2.66539 6.05099V16.9562C1.16454 17.1368 0 18.4151 0 19.9633C0 21.6373 1.36235 23 3.03641 23C4.5842 23 5.86257 21.8353 6.04797 20.3343H16.952C17.135 21.833 18.4134 23 19.9636 23C21.6374 23 23 21.6375 23 19.9633C22.9948 18.4151 21.8303 17.1368 20.3294 16.9538ZM19.3405 16.9909C19.2491 17.0107 19.1575 17.033 19.0709 17.0601C19.0463 17.0675 19.0214 17.0773 18.9968 17.0873C18.935 17.1096 18.8707 17.1294 18.8113 17.1565C18.7793 17.1689 18.7496 17.1838 18.7174 17.1986C18.663 17.2233 18.6111 17.2481 18.559 17.2752C18.5269 17.2924 18.4973 17.3098 18.465 17.3271C18.4155 17.3543 18.3662 17.3864 18.3191 17.4161C18.2894 17.4359 18.2598 17.4532 18.2325 17.473C18.183 17.5077 18.1337 17.5448 18.0842 17.5843C18.062 17.6015 18.0373 17.6189 18.015 17.6386C17.9459 17.6955 17.8791 17.7549 17.8172 17.8192L17.8122 17.8242C17.7479 17.8886 17.6885 17.9553 17.6316 18.0221C17.6118 18.0443 17.5946 18.069 17.5773 18.0912C17.5402 18.1407 17.5031 18.1877 17.4661 18.2396C17.4462 18.2668 17.429 18.2965 17.4091 18.3262C17.3771 18.3731 17.3474 18.4226 17.3201 18.4721C17.3029 18.5042 17.2855 18.5338 17.2682 18.5661C17.241 18.618 17.2163 18.6699 17.1917 18.7244C17.1768 18.7565 17.162 18.7862 17.1496 18.8185C17.1249 18.8802 17.1027 18.9421 17.0804 19.0039C17.073 19.0285 17.0632 19.0534 17.0532 19.0781C17.0259 19.1671 17.0037 19.2561 16.984 19.3477C16.979 19.3675 16.979 19.3847 16.9742 19.4046C16.9617 19.4663 16.9495 19.5307 16.9421 19.595H14.9195L19.5829 14.9311V16.9539C19.5186 16.9613 19.4568 16.9737 19.3925 16.986C19.3801 16.9858 19.3603 16.9884 19.3406 16.9908L19.3405 16.9909ZM9.42811 19.5922L19.5882 9.42888V13.8773L13.8765 19.5922H9.42811ZM6.04797 19.5922C6.04055 19.5279 6.02813 19.4662 6.01589 19.4018C6.01347 19.382 6.01089 19.3647 6.00606 19.3449C5.98622 19.2535 5.96397 19.1619 5.9369 19.0753C5.92948 19.0506 5.91965 19.0258 5.90964 19.0011C5.88739 18.9394 5.86756 18.875 5.84048 18.8157C5.82806 18.7836 5.81323 18.7539 5.7984 18.7217C5.77374 18.6673 5.7489 18.6154 5.72182 18.5633C5.70457 18.5312 5.68715 18.5016 5.6699 18.4693C5.64265 18.4198 5.61057 18.3705 5.58091 18.3234C5.56108 18.2937 5.54383 18.2641 5.52399 18.2368C5.49191 18.1899 5.45725 18.1428 5.42016 18.0983L18.0899 5.42721C18.1344 5.46188 18.1813 5.49638 18.2284 5.53105C18.2557 5.55089 18.2853 5.56814 18.315 5.58798C18.3619 5.62006 18.4114 5.64973 18.4609 5.67698C18.493 5.69423 18.5226 5.71165 18.5549 5.7289C18.6068 5.75615 18.6587 5.78082 18.7132 5.80549C18.7453 5.82032 18.775 5.83516 18.8072 5.84758C18.869 5.87224 18.9309 5.89449 18.9926 5.91674C19.0173 5.92416 19.0421 5.93399 19.0668 5.944C19.1558 5.97125 19.2448 5.9935 19.3364 6.01317C19.3562 6.01817 19.3735 6.01817 19.3933 6.023C19.455 6.03542 19.5194 6.04767 19.5837 6.05508V8.42168C19.5442 8.43893 19.5071 8.46118 19.4749 8.49343L8.373 19.5965L6.04825 19.597L6.04797 19.5922ZM4.52985 17.3247C4.49777 17.3074 4.46811 17.29 4.43585 17.2727C4.38394 17.2455 4.33202 17.2208 4.27752 17.1961C4.24544 17.1813 4.21578 17.1665 4.18353 17.1541C4.12178 17.1294 4.05986 17.1071 3.99812 17.0849C3.97345 17.0775 3.94862 17.0676 3.92395 17.0576C3.83496 17.0304 3.74596 17.0081 3.65438 16.9885C3.63454 16.9835 3.61729 16.9835 3.59746 16.9786C3.53571 16.9662 3.47138 16.954 3.40705 16.9465V14.617L14.6175 3.40538H16.9468C16.9542 3.46971 16.9666 3.53147 16.9789 3.59581C16.9813 3.61564 16.9839 3.63289 16.9887 3.65273C17.0085 3.74415 17.0308 3.83574 17.0579 3.92234C17.0653 3.947 17.0751 3.97184 17.0851 3.99651C17.1074 4.05826 17.1272 4.1226 17.1543 4.18194C17.1667 4.21402 17.1815 4.24369 17.1964 4.27594C17.221 4.33028 17.2459 4.3822 17.2729 4.43429C17.2902 4.46637 17.3076 4.49604 17.3249 4.5283C17.3521 4.5778 17.3842 4.62714 17.4138 4.67423C17.4337 4.70389 17.4509 4.73356 17.4708 4.76081C17.5028 4.80773 17.5375 4.85482 17.5746 4.89932L4.90087 17.5744C4.85638 17.5397 4.80946 17.5052 4.76238 17.4705C4.73513 17.4507 4.70546 17.4335 4.6758 17.4136C4.62889 17.3815 4.57939 17.3519 4.52989 17.3246L4.52985 17.3247ZM3.59764 6.01892C3.61748 6.01651 3.63473 6.01392 3.65456 6.00909C3.74597 5.98926 3.83755 5.967 3.92414 5.93992C3.9488 5.93251 3.97364 5.92268 3.9983 5.91267C4.06005 5.89042 4.12438 5.87058 4.18371 5.8435C4.21579 5.83108 4.24545 5.81625 4.27771 5.80141C4.33204 5.77675 4.38395 5.75191 4.43604 5.72483C4.46812 5.70758 4.49778 5.69016 4.53004 5.67291C4.57954 5.64565 4.62886 5.61357 4.67595 5.5839C4.70561 5.56406 4.73528 5.54682 4.76253 5.52698C4.81203 5.49231 4.86136 5.45522 4.91086 5.41572C4.9331 5.39847 4.95777 5.38105 4.98002 5.36139C5.04918 5.30446 5.11593 5.24513 5.17785 5.18079C5.18026 5.17837 5.18026 5.17837 5.18285 5.17579C5.24718 5.11145 5.30651 5.04469 5.36343 4.97794C5.38326 4.95569 5.40051 4.93102 5.41776 4.90877C5.45484 4.85926 5.49192 4.81235 5.529 4.76043C5.54883 4.73317 5.56608 4.7035 5.58592 4.67384C5.618 4.62692 5.64766 4.57741 5.67491 4.52791C5.69216 4.49582 5.70958 4.46616 5.72683 4.4339C5.75408 4.38198 5.77874 4.33006 5.80341 4.27555C5.81824 4.24347 5.83307 4.2138 5.84549 4.18155C5.87015 4.1198 5.8924 4.05787 5.91465 3.99612C5.92207 3.97145 5.9319 3.94661 5.9419 3.92195C5.96915 3.83294 5.9914 3.74394 6.01106 3.65234C6.01607 3.6325 6.01607 3.61526 6.0209 3.59542C6.03331 3.53367 6.04556 3.46933 6.05298 3.40499H8.07559L3.40727 8.07379V6.05097C3.47143 6.04355 3.53335 6.0313 3.59751 6.01888L3.59764 6.01892ZM3.40741 9.12238L9.12127 3.40792H13.5693L3.40696 13.5713L3.40741 9.12238ZM19.9587 0.744317C21.2246 0.744317 22.2533 1.77306 22.2533 3.03916C22.2533 4.30525 21.2246 5.33399 19.9587 5.33399C19.3628 5.33399 18.8212 5.10406 18.4133 4.73062C18.3961 4.70095 18.3812 4.66887 18.3564 4.64403C18.3317 4.61937 18.2995 4.60194 18.2698 4.58711C17.8964 4.17916 17.6665 3.63754 17.6665 3.04158C17.6665 1.77306 18.6951 0.744361 19.9587 0.744361V0.744317ZM0.741879 3.03916C0.741879 1.77306 1.77052 0.744317 3.03647 0.744317C4.30243 0.744317 5.33107 1.77306 5.33107 3.03916C5.33107 4.30525 4.30243 5.33399 3.03647 5.33399C1.77052 5.33399 0.741879 4.30282 0.741879 3.03916ZM3.03647 22.258C1.77052 22.258 0.741879 21.2292 0.741879 19.9631C0.741879 18.697 1.77052 17.6683 3.03647 17.6683C4.30243 17.6683 5.33107 18.697 5.33107 19.9631C5.33107 21.2292 4.30001 22.258 3.03647 22.258ZM19.9591 22.258C18.6931 22.258 17.6645 21.2292 17.6645 19.9631C17.6645 18.697 18.6931 17.6683 19.9591 17.6683C21.225 17.6683 22.2537 18.697 22.2537 19.9631C22.2537 21.2292 21.225 22.258 19.9591 22.258Z" fill="#791214"/>
</svg>
