<svg width="228" height="34" viewBox="0 0 228 34" fill="none" xmlns="http://www.w3.org/2000/svg">
<path d="M88.5533 4.73787C88.5533 4.46519 88.417 4.26068 88.1784 4.12434C87.9398 3.95391 87.5989 3.88574 87.1899 3.88574H53.616C53.2411 3.88574 52.9343 3.95391 52.6616 4.09025C52.3889 4.22659 52.2867 4.46519 52.2867 4.73787V8.69175C52.2867 8.79401 52.2867 8.89626 52.2867 8.99852C52.2867 9.10077 52.3548 9.20303 52.4571 9.33937L73.3854 26.2797H53.5137C53.1388 26.2797 52.832 26.3479 52.5934 26.4842C52.3548 26.6206 52.2185 26.8591 52.2185 27.1659V32.0742C52.2185 32.3128 52.3208 32.5173 52.5594 32.7218C52.798 32.9263 53.1047 33.0286 53.5137 33.0286H87.0876C87.4626 33.0286 87.8034 32.9604 88.042 32.79C88.3147 32.6195 88.451 32.3809 88.451 32.0742V27.8817C88.451 27.6772 88.3829 27.5068 88.2465 27.3704L67.3864 10.6346H87.1899C87.5989 10.6346 87.9398 10.5664 88.1784 10.396C88.417 10.2597 88.5533 9.98699 88.5533 9.64614V4.73787Z" fill="white"/>
<path d="M90.803 4.73787C90.803 4.46519 90.9393 4.26068 91.212 4.12434C91.4847 3.95391 91.7914 3.88574 92.1664 3.88574H123.286C123.627 3.88574 123.934 3.95391 124.206 4.09025C124.479 4.22659 124.615 4.46519 124.684 4.73787V9.64614C124.684 9.88473 124.581 10.0892 124.343 10.3278C124.104 10.5324 123.763 10.6687 123.32 10.6687H113.333V32.1764C113.333 32.415 113.197 32.6195 112.958 32.8241C112.72 33.0286 112.379 33.0967 111.97 33.0967H103.483C103.142 33.0967 102.835 32.9945 102.562 32.8241C102.29 32.6536 102.119 32.415 102.119 32.1764V10.6346H92.1664C91.7914 10.6346 91.4506 10.5664 91.212 10.396C90.9393 10.2256 90.803 9.98699 90.803 9.64614V4.73787Z" fill="white"/>
<path d="M124.684 4.80601C124.684 4.53333 124.786 4.32882 125.024 4.1584C125.229 3.98797 125.57 3.9198 125.945 3.9198H154.644C154.951 3.9198 155.19 3.95388 155.394 4.05614C154.747 4.43108 154.099 4.80601 153.451 5.24912C151.952 6.27168 150.554 7.46466 149.361 8.86215C148.85 9.4416 148.407 10.0551 147.998 10.7028H135.864V15.5769H145.885C145.68 16.5654 145.544 17.5539 145.544 18.5764C145.544 19.5308 145.646 20.4852 145.816 21.4055H135.829V26.3819H147.93C148.373 27.0296 148.85 27.6772 149.361 28.2566C150.554 29.62 151.952 30.813 153.451 31.8356C154.133 32.3128 154.849 32.7218 155.565 33.1308C155.463 33.1308 155.326 33.1649 155.19 33.1649H125.945C125.57 33.1649 125.263 33.0967 125.024 32.9604C124.786 32.824 124.684 32.6195 124.684 32.3128V4.80601Z" fill="white"/>
<path d="M185.662 5.99898C186.003 6.13532 186.241 6.30575 186.378 6.51026C186.548 6.71477 186.514 6.95337 186.275 7.26013L181.401 11.9639C181.197 12.2025 180.958 12.3047 180.72 12.3388C180.481 12.3729 180.174 12.3047 179.833 12.1684C178.879 11.6912 177.856 11.3163 176.698 11.0436C175.573 10.7709 174.346 10.6346 173.084 10.6346C171.517 10.6346 170.051 10.8391 168.722 11.2481C167.392 11.6571 166.233 12.2025 165.279 12.9183C164.325 13.6341 163.575 14.4521 163.029 15.4065C162.484 16.3609 162.211 17.3493 162.211 18.4401C162.211 19.5308 162.484 20.5193 163.029 21.4396C163.575 22.3599 164.325 23.1779 165.279 23.8937C166.233 24.6095 167.392 25.1549 168.722 25.5639C170.051 25.9729 171.517 26.1774 173.084 26.1774C174.346 26.1774 175.573 26.0411 176.732 25.7684C177.891 25.4957 178.947 25.1208 179.867 24.6436C180.208 24.5072 180.515 24.4391 180.72 24.4732C180.958 24.5072 181.197 24.6095 181.401 24.814L186.344 29.6541C186.548 29.9609 186.582 30.1995 186.446 30.404C186.275 30.6085 186.037 30.7789 185.73 30.8812C183.924 31.6992 181.981 32.3468 179.867 32.7899C177.788 33.233 175.573 33.4716 173.255 33.4716C171.21 33.4716 169.267 33.3012 167.392 32.9263C165.518 32.5854 163.745 32.0741 162.109 31.4265C160.473 30.7789 158.973 29.9949 157.644 29.0746C156.315 28.1543 155.156 27.1659 154.201 26.0411C153.247 24.9503 152.497 23.7233 151.952 22.4621C151.44 21.201 151.168 19.8716 151.168 18.4742C151.168 17.0767 151.44 15.7473 151.952 14.4862C152.463 13.191 153.213 11.998 154.201 10.8732C155.156 9.74835 156.315 8.7258 157.644 7.8055C159.007 6.8852 160.473 6.10124 162.109 5.45362C163.745 4.806 165.518 4.29472 167.392 3.95387C169.267 3.57893 171.21 3.40851 173.255 3.40851C175.573 3.40851 177.754 3.61302 179.799 4.05613C181.913 4.53332 183.855 5.18094 185.662 5.99898Z" fill="white"/>
<path fill-rule="evenodd" clip-rule="evenodd" d="M206.931 13.0547C206.556 13.7364 206.215 14.4521 205.84 15.202C205.465 15.986 205.09 16.7699 204.715 17.5539C204.341 18.3379 204 19.1218 203.625 19.8717C203.25 20.6216 202.875 21.3714 202.5 22.0191H211.362L206.931 13.0547ZM201.682 4.6697C201.716 4.60153 201.784 4.49928 201.886 4.43111C201.989 4.32885 202.125 4.26068 202.261 4.15842C202.432 4.09025 202.568 4.02208 202.739 3.95391C202.909 3.91983 203.079 3.88574 203.216 3.88574H210.646C210.987 3.88574 211.26 3.95391 211.498 4.09025C211.737 4.22659 211.907 4.36293 212.01 4.46519L212.725 5.59L227.893 32.2105C228.064 32.4832 228.03 32.6877 227.791 32.8581C227.587 33.0286 227.212 33.0967 226.7 33.0967H218.418C217.975 33.0967 217.634 33.0286 217.395 32.9263C217.157 32.8241 216.952 32.6195 216.816 32.3809C216.441 31.6992 216.066 31.0516 215.691 30.3699C215.316 29.7223 214.975 29.0406 214.6 28.393H199.262C198.887 29.0747 198.546 29.7223 198.171 30.3699C197.796 31.0175 197.421 31.6992 197.046 32.3809C196.808 32.8581 196.296 33.0967 195.581 33.0967H188.389C188.627 32.8922 188.866 32.6877 189.036 32.415C190.127 31.0175 190.025 29.211 189.036 27.8135L188.866 27.5749L188.73 27.4386L201.682 4.6697Z" fill="white"/>
<path d="M31.5288 0L64.4892 33.0967H35.9599L35.9258 25.1208H40.6977L36.028 20.5534L31.597 16.2245L27.1659 20.5534L22.4621 25.1208H27.2681V33.0967H0L15.7814 16.395L31.5288 0Z" fill="white"/>
<path d="M23.6551 2.99951H18.6787V13.3955H23.6551V2.99951Z" fill="white"/>
</svg>
